<?xml version="1.0" encoding="UTF-8" standalone="no"?>
<!-- Generator: Adobe Illustrator 16.0.0, SVG Export Plug-In . SVG Version: 6.00 Build 0)  -->
<svg xmlns:dc="http://purl.org/dc/elements/1.1/" xmlns:cc="http://creativecommons.org/ns#" xmlns:rdf="http://www.w3.org/1999/02/22-rdf-syntax-ns#" xmlns:svg="http://www.w3.org/2000/svg" xmlns="http://www.w3.org/2000/svg" xmlns:sodipodi="http://sodipodi.sourceforge.net/DTD/sodipodi-0.dtd" xmlns:inkscape="http://www.inkscape.org/namespaces/inkscape" version="1.1" id="Ebene_1" x="0px" y="0px" width="200" height="150" viewBox="0 0 200 150" enable-background="new 0 0 200 200" xml:space="preserve" inkscape:version="0.91 r13725" sodipodi:docname="typescript.svg"><metadata id="metadata3552"><rdf:RDF><cc:Work rdf:about=""><dc:format>image/svg+xml</dc:format><dc:type rdf:resource="http://purl.org/dc/dcmitype/StillImage"/><dc:title/></cc:Work></rdf:RDF></metadata><defs id="defs3550"/><sodipodi:namedview pagecolor="#ffffff" bordercolor="#666666" borderopacity="1" objecttolerance="10" gridtolerance="10" guidetolerance="10" inkscape:pageopacity="0" inkscape:pageshadow="2" inkscape:window-width="640" inkscape:window-height="480" id="namedview3548" showgrid="false" inkscape:zoom="1.18" inkscape:cx="100" inkscape:cy="100" inkscape:window-x="65" inkscape:window-y="34" inkscape:window-maximized="0" inkscape:current-layer="Ebene_1"/><g id="TypeScript_1_" transform="translate(0,-30)"><g id="g3540"><rect x="37.805" y="37.897999" width="123.961" height="123.136" id="rect3542" style="fill:#2279be"/><polygon points="107.872,59.617 107.872,67.974 85.146,67.974 85.146,138.369 75.914,138.369 75.914,67.974 53.236,67.974 53.236,59.617 " id="polygon3544" style="fill:#ffffff"/><path d="m 97.382,144.537 0,-9.872 c 1.033,0.992 2.269,1.9 3.715,2.694 1.445,0.797 2.964,1.477 4.567,2.016 1.604,0.538 3.204,0.979 4.808,1.277 1.618,0.298 3.107,0.452 4.469,0.452 4.71,0 8.24,-0.948 10.566,-2.864 2.326,-1.911 3.488,-4.665 3.488,-8.254 0,-1.931 -0.38,-3.605 -1.16,-5.035 -0.779,-1.432 -1.844,-2.739 -3.22,-3.916 -1.377,-1.176 -2.993,-2.314 -4.867,-3.39 -1.873,-1.079 -3.885,-2.214 -6.042,-3.419 -2.282,-1.259 -4.412,-2.539 -6.384,-3.845 -1.971,-1.29 -3.699,-2.723 -5.147,-4.281 -1.463,-1.563 -2.609,-3.336 -3.445,-5.307 -0.838,-1.971 -1.249,-4.296 -1.249,-6.95 0,-3.261 0.652,-6.084 1.956,-8.494 1.306,-2.411 3.022,-4.398 5.166,-5.957 2.124,-1.562 4.55,-2.723 7.274,-3.491 2.724,-0.765 5.504,-1.148 8.326,-1.148 6.455,0 11.149,0.851 14.099,2.537 l 0,9.419 c -3.858,-2.921 -8.823,-4.382 -14.88,-4.382 -1.674,0 -3.349,0.198 -5.021,0.567 -1.675,0.384 -3.163,1.006 -4.469,1.872 -1.303,0.864 -2.369,1.973 -3.191,3.349 -0.82,1.361 -1.232,3.02 -1.232,4.992 0,1.829 0.312,3.404 0.935,4.737 0.623,1.334 1.546,2.538 2.766,3.646 1.221,1.092 2.695,2.156 4.453,3.192 1.746,1.035 3.76,2.154 6.044,3.39 2.342,1.264 4.566,2.596 6.667,3.985 2.099,1.39 3.942,2.937 5.518,4.639 1.574,1.702 2.836,3.575 3.758,5.629 0.923,2.059 1.391,4.427 1.391,7.081 0,3.517 -0.639,6.512 -1.886,8.949 -1.264,2.439 -2.965,4.425 -5.105,5.956 -2.144,1.533 -4.61,2.641 -7.42,3.322 -2.793,0.678 -5.743,1.021 -8.851,1.021 -1.035,0 -2.312,-0.085 -3.831,-0.269 -1.518,-0.186 -3.076,-0.456 -4.65,-0.794 -1.589,-0.357 -3.08,-0.781 -4.497,-1.293 -1.434,-0.556 -2.556,-1.138 -3.419,-1.761 z" id="path3546" inkscape:connector-curvature="0" style="fill:#ffffff"/></g></g></svg>